<?xml version="1.0" encoding="utf-8"?>
<!-- Generator: Adobe Illustrator 16.0.0, SVG Export Plug-In . SVG Version: 6.00 Build 0)  -->
<!DOCTYPE svg PUBLIC "-//W3C//DTD SVG 1.1//EN" "http://www.w3.org/Graphics/SVG/1.1/DTD/svg11.dtd">
<svg version="1.1" xmlns="http://www.w3.org/2000/svg" xmlns:xlink="http://www.w3.org/1999/xlink" x="0px" y="0px" width="720px"
	 height="720px" viewBox="0 0 720 720" enable-background="new 0 0 720 720" xml:space="preserve">
<g id="Layer_1" opacity="0.6">
	<polyline fill="none" stroke="#000000" stroke-width="3" stroke-miterlimit="10" points="418,684 35,684 35,36 683,36 683,422 	"/>
</g>
<g id="Layer_2" display="none" opacity="0.2">
	<rect x="78.501" y="278.127" display="inline" fill="none" width="194" height="164.746"/>
	<text transform="matrix(1.24 0 0 1 137.2798 438.3242)" display="inline" font-family="'DINPro-Light'" font-size="225">I</text>
	<rect x="75" y="475" display="inline" fill="none" width="194" height="164.746"/>
	<text transform="matrix(1.24 0 0 1 82.1626 635.1973)" display="inline" font-family="'DINPro-Light'" font-size="225">C</text>
	<rect x="258" y="277.627" display="inline" fill="none" width="216" height="164.746"/>
	<text transform="matrix(1.24 0 0 1 282.5801 437.8242)" display="inline" font-family="'DINPro-Light'" font-size="225">E</text>
	<rect x="257" y="475" display="inline" fill="none" width="216" height="164.746"/>
	<text transform="matrix(1.24 0 0 1 285.207 635.1973)" display="inline" font-family="'DINPro-Light'" font-size="225">L</text>
	<rect x="437.829" y="84.254" display="inline" fill="none" width="216" height="164.746"/>
	<text transform="matrix(1.24 0 0 1 462.4092 244.4517)" display="inline" font-family="'DINPro-Light'" font-size="225">E</text>
	<rect x="434.163" y="278.96" display="inline" fill="none" width="216" height="164.746"/>
	<text transform="matrix(1.24 0 0 1 462.3701 439.1582)" display="inline" font-family="'DINPro-Light'" font-size="225">L</text>
</g>
<g id="Layer_3" display="none">
	<rect x="46.895" y="86.254" display="inline" fill="none" width="253.605" height="164.746"/>
	<text transform="matrix(1.24 0 0 1 59.5874 246.4517)" display="inline" font-family="'DINPro-Light'" font-size="225">M</text>
	<rect x="265" y="86.254" display="inline" fill="none" width="216" height="164.746"/>
	<text transform="matrix(1.24 0 0 1 275.4907 246.4517)" display="inline" font-family="'DINPro-Light'" font-size="225">H</text>
</g>
<g id="Layer_4" opacity="0.2">
	<rect x="63.102" y="300.604" fill="none" width="202.49" height="131.993"/>
	<text transform="matrix(1.5 0 0 1 127.7295 423.2266)" font-family="'AMGDT'" font-size="165">I</text>
	<rect x="64.354" y="487.677" fill="none" width="236.988" height="176.99"/>
	<text transform="matrix(1.5 0 0 1 72.5728 610.2988)" font-family="'AMGDT'" font-size="165">C</text>
	<rect x="255.507" y="300.479" fill="none" width="202.49" height="131.994"/>
	<text transform="matrix(1.5 0 0 1 272.4595 423.1016)" font-family="'AMGDT'" font-size="165">E</text>
	<rect x="237.759" y="487.551" fill="none" width="236.988" height="176.99"/>
	<text transform="matrix(1.5 0 0 1 284.9517 610.1729)" font-family="'AMGDT'" font-size="165">L</text>
	<rect x="426.988" y="107.481" fill="none" width="236.988" height="176.991"/>
	<text transform="matrix(1.5 0 0 1 474.1816 230.1035)" font-family="'AMGDT'" font-size="165">L</text>
	<rect x="445.86" y="298.48" fill="none" width="202.49" height="131.994"/>
	<text transform="matrix(1.5 0 0 1 462.8125 421.1016)" font-family="'AMGDT'" font-size="165">E</text>
</g>
<g id="Layer_5">
	<rect x="46.605" y="108.604" fill="none" width="236.988" height="176.991"/>
	<text transform="matrix(1.5 0 0 1 59.1748 231.2266)" font-family="'AMGDT'" font-size="165">M</text>
	<rect x="243.509" y="109.48" fill="none" width="236.989" height="176.991"/>
	<text transform="matrix(1.5 0 0 1 260.4292 232.1025)" font-family="'AMGDT'" font-size="165">H</text>
</g>
</svg>
